<svg id="visual" viewBox="0 0 900 600" width="900" height="600" xmlns="http://www.w3.org/2000/svg" xmlns:xlink="http://www.w3.org/1999/xlink" version="1.1"><rect x="0" y="0" width="900" height="600" fill="#CE5858"></rect><defs><linearGradient id="grad1_0" x1="33.3%" y1="100%" x2="100%" y2="0%"><stop offset="20%" stop-color="#ce5858" stop-opacity="1"></stop><stop offset="80%" stop-color="#ce5858" stop-opacity="1"></stop></linearGradient></defs><defs><linearGradient id="grad2_0" x1="0%" y1="100%" x2="66.7%" y2="0%"><stop offset="20%" stop-color="#ce5858" stop-opacity="1"></stop><stop offset="80%" stop-color="#ce5858" stop-opacity="1"></stop></linearGradient></defs><g transform="translate(900, 600)"><path d="M-270.4 0C-248.8 -27.2 -227.2 -54.4 -218 -90.3C-208.8 -126.3 -212.1 -171 -191.2 -191.2C-170.4 -211.4 -125.4 -207.1 -89.5 -216.2C-53.7 -225.3 -26.8 -247.9 0 -270.4L0 0Z" fill="#FFB4B4"></path></g><g transform="translate(0, 0)"><path d="M270.4 0C263.6 34.2 256.9 68.5 244.8 101.4C232.8 134.3 215.5 165.9 191.2 191.2C166.9 216.5 135.6 235.5 102.6 247.6C69.5 259.7 34.8 265.1 0 270.4L0 0Z" fill="#FFB4B4"></path></g></svg>